<svg width="1920" height="1080" viewBox="0 0 1920 1080" fill="none" xmlns="http://www.w3.org/2000/svg">
<rect width="1920" height="1080" fill="#18171A"/>
<path d="M861.5 457C861.5 539.458 792.885 606.5 708 606.5C623.115 606.5 554.5 539.458 554.5 457C554.5 374.542 623.115 307.5 708 307.5C792.885 307.5 861.5 374.542 861.5 457Z" stroke="#282833" stroke-width="9"/>
<path d="M1000.43 395.822C1002.9 407.101 998.594 419.942 987.289 433.824C976.018 447.666 958.206 461.989 935.002 475.899C888.631 503.698 821.522 529.379 744.679 546.207C667.837 563.034 596.137 567.752 542.391 561.877C515.497 558.938 493.329 553.37 477.305 545.506C461.233 537.619 451.955 527.752 449.485 516.474C447.015 505.195 451.32 492.353 462.625 478.471C473.896 464.63 491.708 450.307 514.912 436.396C561.283 408.597 628.393 382.917 705.235 366.089C782.077 349.261 853.777 344.544 907.523 350.418C934.417 353.358 956.585 358.925 972.609 366.789C988.681 374.676 997.959 384.543 1000.43 395.822Z" stroke="#282833" stroke-width="8"/>
<path d="M792 743.213C782.4 763.213 800.08 781.813 754 796.213C782 794.546 791.2 798.213 802 846.213C803.5 799.213 822.9 788.013 826.5 789.213C791 782.713 793.847 739.613 792 743.213Z" stroke="#282833" stroke-width="5"/>
<path d="M1033 520C1033.67 545.333 1028 597.2 1000 602C1013.67 599 1042 601.7 1046 636.5C1046.33 616.333 1052.4 577.6 1074 584L1061.31 574.978C1054.91 570.427 1049.99 564.093 1047.17 556.765L1033 520Z" stroke="#282833" stroke-width="5"/>
</svg>
